<?xml version="1.0" encoding="UTF-8"?>
<!DOCTYPE svg PUBLIC "-//W3C//DTD SVG 1.1//EN" "http://www.w3.org/Graphics/SVG/1.1/DTD/svg11.dtd">
<!-- Creator: CorelDRAW -->
<svg xmlns="http://www.w3.org/2000/svg" xml:space="preserve" width="0.253378in" height="0.253378in" version="1.1" style="shape-rendering:geometricPrecision; text-rendering:geometricPrecision; image-rendering:optimizeQuality; fill-rule:evenodd; clip-rule:evenodd"
viewBox="0 0 13.19 13.19"
 xmlns:xlink="http://www.w3.org/1999/xlink"
 xmlns:xodm="http://www.corel.com/coreldraw/odm/2003">
 <defs>
  <style type="text/css">
   <![CDATA[
    .fil0 {fill:#03A10A;fill-rule:nonzero}
    .fil1 {fill:white;fill-rule:nonzero}
   ]]>
  </style>
 </defs>
 <g id="Layer_x0020_1">
  <metadata id="CorelCorpID_0Corel-Layer"/>
  <g id="_2429536363008">
   <path class="fil0" d="M11.02 0l-8.85 0c-1.2,0 -2.17,0.97 -2.17,2.17l0 8.85c0,1.2 0.97,2.17 2.17,2.17l8.85 0c1.2,0 2.17,-0.97 2.17,-2.17l0 -8.85c0,-1.2 -0.97,-2.17 -2.17,-2.17z"/>
   <path class="fil1" d="M8.13 5.42c0,1 -0.73,1.81 -1.63,1.81 -0.9,0 -1.63,-0.81 -1.63,-1.81l0.04 -0.42 -1.26 -0.71 2.85 -1.58 2.85 1.58 0 2.26 -0.41 0 0 -2.03 -0.86 0.48 0.04 0.42zm-1.63 2.71c1.8,0 3.25,0.81 3.25,1.81l0 0.9 -6.51 0 0 -0.9c0,-1 1.46,-1.81 3.25,-1.81z"/>
  </g>
 </g>
</svg>
