<svg width="155" height="25" viewBox="0 0 155 25" fill="none" xmlns="http://www.w3.org/2000/svg">
<path d="M37.9375 15.0234C37.9375 14.8203 37.9062 14.638 37.8438 14.4766C37.7865 14.3099 37.6771 14.1589 37.5156 14.0234C37.3542 13.8828 37.1276 13.7448 36.8359 13.6094C36.5443 13.474 36.1667 13.3333 35.7031 13.1875C35.1875 13.0208 34.6979 12.8333 34.2344 12.625C33.776 12.4167 33.3698 12.1745 33.0156 11.8984C32.6667 11.6172 32.3906 11.2917 32.1875 10.9219C31.9896 10.5521 31.8906 10.1224 31.8906 9.63281C31.8906 9.15885 31.9948 8.72917 32.2031 8.34375C32.4115 7.95312 32.7031 7.61979 33.0781 7.34375C33.4531 7.0625 33.8958 6.84635 34.4062 6.69531C34.9219 6.54427 35.487 6.46875 36.1016 6.46875C36.9401 6.46875 37.6719 6.61979 38.2969 6.92188C38.9219 7.22396 39.4062 7.63802 39.75 8.16406C40.099 8.6901 40.2734 9.29167 40.2734 9.96875H37.9453C37.9453 9.63542 37.875 9.34375 37.7344 9.09375C37.599 8.83854 37.3906 8.63802 37.1094 8.49219C36.8333 8.34635 36.4844 8.27344 36.0625 8.27344C35.6562 8.27344 35.3177 8.33594 35.0469 8.46094C34.776 8.58073 34.5729 8.74479 34.4375 8.95312C34.3021 9.15625 34.2344 9.38542 34.2344 9.64062C34.2344 9.83333 34.2812 10.0078 34.375 10.1641C34.474 10.3203 34.6198 10.4661 34.8125 10.6016C35.0052 10.737 35.2422 10.8646 35.5234 10.9844C35.8047 11.1042 36.1302 11.2214 36.5 11.3359C37.1198 11.5234 37.6641 11.7344 38.1328 11.9688C38.6068 12.2031 39.0026 12.4661 39.3203 12.7578C39.638 13.0495 39.8776 13.3802 40.0391 13.75C40.2005 14.1198 40.2812 14.5391 40.2812 15.0078C40.2812 15.5026 40.1849 15.9453 39.9922 16.3359C39.7995 16.7266 39.5208 17.0573 39.1562 17.3281C38.7917 17.599 38.3568 17.8047 37.8516 17.9453C37.3464 18.0859 36.7812 18.1562 36.1562 18.1562C35.5938 18.1562 35.0391 18.0833 34.4922 17.9375C33.9453 17.7865 33.4479 17.5599 33 17.2578C32.5573 16.9557 32.2031 16.5703 31.9375 16.1016C31.6719 15.6328 31.5391 15.0781 31.5391 14.4375H33.8906C33.8906 14.7917 33.9453 15.0911 34.0547 15.3359C34.1641 15.5807 34.3177 15.7786 34.5156 15.9297C34.7188 16.0807 34.9583 16.1901 35.2344 16.2578C35.5156 16.3255 35.8229 16.3594 36.1562 16.3594C36.5625 16.3594 36.8958 16.3021 37.1562 16.1875C37.4219 16.0729 37.6172 15.9141 37.7422 15.7109C37.8724 15.5078 37.9375 15.2786 37.9375 15.0234ZM44.3672 6.625V18H42.0312V6.625H44.3672ZM50.5469 6.625H54.7891C55.6589 6.625 56.4062 6.75521 57.0312 7.01562C57.6615 7.27604 58.1458 7.66146 58.4844 8.17188C58.8229 8.68229 58.9922 9.3099 58.9922 10.0547C58.9922 10.6641 58.888 11.1875 58.6797 11.625C58.4766 12.0573 58.1875 12.4193 57.8125 12.7109C57.4427 12.9974 57.0078 13.2266 56.5078 13.3984L55.7656 13.7891H52.0781L52.0625 11.9609H54.8047C55.2161 11.9609 55.5573 11.888 55.8281 11.7422C56.099 11.5964 56.3021 11.3932 56.4375 11.1328C56.5781 10.8724 56.6484 10.5703 56.6484 10.2266C56.6484 9.86198 56.5807 9.54688 56.4453 9.28125C56.3099 9.01562 56.1042 8.8125 55.8281 8.67188C55.5521 8.53125 55.2057 8.46094 54.7891 8.46094H52.8906V18H50.5469V6.625ZM56.9062 18L54.3125 12.9297L56.7891 12.9141L59.4141 17.8906V18H56.9062ZM65.2188 16.0938V12.3281C65.2188 12.0573 65.1745 11.8255 65.0859 11.6328C64.9974 11.4349 64.8594 11.2812 64.6719 11.1719C64.4896 11.0625 64.2526 11.0078 63.9609 11.0078C63.7109 11.0078 63.4948 11.0521 63.3125 11.1406C63.1302 11.224 62.9896 11.3464 62.8906 11.5078C62.7917 11.6641 62.7422 11.849 62.7422 12.0625H60.4922C60.4922 11.7031 60.5755 11.362 60.7422 11.0391C60.9089 10.7161 61.151 10.4323 61.4688 10.1875C61.7865 9.9375 62.1641 9.74219 62.6016 9.60156C63.0443 9.46094 63.5391 9.39062 64.0859 9.39062C64.7422 9.39062 65.3255 9.5 65.8359 9.71875C66.3464 9.9375 66.7474 10.2656 67.0391 10.7031C67.3359 11.1406 67.4844 11.6875 67.4844 12.3438V15.9609C67.4844 16.4245 67.513 16.8047 67.5703 17.1016C67.6276 17.3932 67.7109 17.6484 67.8203 17.8672V18H65.5469C65.4375 17.7708 65.3542 17.4844 65.2969 17.1406C65.2448 16.7917 65.2188 16.4427 65.2188 16.0938ZM65.5156 12.8516L65.5312 14.125H64.2734C63.9766 14.125 63.7188 14.1589 63.5 14.2266C63.2812 14.2943 63.1016 14.3906 62.9609 14.5156C62.8203 14.6354 62.7161 14.776 62.6484 14.9375C62.5859 15.099 62.5547 15.276 62.5547 15.4688C62.5547 15.6615 62.599 15.8359 62.6875 15.9922C62.776 16.1432 62.9036 16.263 63.0703 16.3516C63.237 16.4349 63.4323 16.4766 63.6562 16.4766C63.9948 16.4766 64.2891 16.4089 64.5391 16.2734C64.7891 16.138 64.9818 15.9714 65.1172 15.7734C65.2578 15.5755 65.3307 15.388 65.3359 15.2109L65.9297 16.1641C65.8464 16.3776 65.7318 16.599 65.5859 16.8281C65.4453 17.0573 65.2656 17.2734 65.0469 17.4766C64.8281 17.6745 64.5651 17.8385 64.2578 17.9688C63.9505 18.0938 63.5859 18.1562 63.1641 18.1562C62.6276 18.1562 62.1406 18.0495 61.7031 17.8359C61.2708 17.6172 60.9271 17.3177 60.6719 16.9375C60.4219 16.5521 60.2969 16.1146 60.2969 15.625C60.2969 15.1823 60.3802 14.7891 60.5469 14.4453C60.7135 14.1016 60.9583 13.8125 61.2812 13.5781C61.6094 13.3385 62.0182 13.1589 62.5078 13.0391C62.9974 12.9141 63.5651 12.8516 64.2109 12.8516H65.5156ZM71.4688 11.1719V21.25H69.2188V9.54688H71.3047L71.4688 11.1719ZM76.8203 13.6797V13.8438C76.8203 14.4583 76.7474 15.0286 76.6016 15.5547C76.4609 16.0807 76.2526 16.5391 75.9766 16.9297C75.7005 17.3151 75.3568 17.6172 74.9453 17.8359C74.5391 18.0495 74.0703 18.1562 73.5391 18.1562C73.0234 18.1562 72.5755 18.0521 72.1953 17.8438C71.8151 17.6354 71.4948 17.3438 71.2344 16.9688C70.9792 16.5885 70.7734 16.1484 70.6172 15.6484C70.4609 15.1484 70.3411 14.612 70.2578 14.0391V13.6094C70.3411 12.9948 70.4609 12.4323 70.6172 11.9219C70.7734 11.4062 70.9792 10.9609 71.2344 10.5859C71.4948 10.2057 71.8125 9.91146 72.1875 9.70312C72.5677 9.49479 73.013 9.39062 73.5234 9.39062C74.0599 9.39062 74.5312 9.49219 74.9375 9.69531C75.349 9.89844 75.6927 10.1901 75.9688 10.5703C76.25 10.9505 76.4609 11.4036 76.6016 11.9297C76.7474 12.4557 76.8203 13.0391 76.8203 13.6797ZM74.5625 13.8438V13.6797C74.5625 13.3203 74.5312 12.9896 74.4688 12.6875C74.4115 12.3802 74.3177 12.112 74.1875 11.8828C74.0625 11.6536 73.8958 11.4766 73.6875 11.3516C73.4844 11.2214 73.237 11.1562 72.9453 11.1562C72.638 11.1562 72.375 11.2057 72.1562 11.3047C71.9427 11.4036 71.7682 11.5469 71.6328 11.7344C71.4974 11.9219 71.3958 12.1458 71.3281 12.4062C71.2604 12.6667 71.2188 12.9609 71.2031 13.2891V14.375C71.2292 14.7604 71.3021 15.1068 71.4219 15.4141C71.5417 15.7161 71.7266 15.9557 71.9766 16.1328C72.2266 16.3099 72.5547 16.3984 72.9609 16.3984C73.2578 16.3984 73.5078 16.3333 73.7109 16.2031C73.9141 16.0677 74.0781 15.8828 74.2031 15.6484C74.3333 15.4141 74.4245 15.1432 74.4766 14.8359C74.5339 14.5286 74.5625 14.1979 74.5625 13.8438ZM77.8594 13.8594V13.6953C77.8594 13.0755 77.9479 12.5052 78.125 11.9844C78.3021 11.4583 78.5599 11.0026 78.8984 10.6172C79.237 10.2318 79.6536 9.93229 80.1484 9.71875C80.6432 9.5 81.2109 9.39062 81.8516 9.39062C82.4922 9.39062 83.0625 9.5 83.5625 9.71875C84.0625 9.93229 84.4818 10.2318 84.8203 10.6172C85.1641 11.0026 85.4245 11.4583 85.6016 11.9844C85.7786 12.5052 85.8672 13.0755 85.8672 13.6953V13.8594C85.8672 14.474 85.7786 15.0443 85.6016 15.5703C85.4245 16.0911 85.1641 16.5469 84.8203 16.9375C84.4818 17.3229 84.0651 17.6224 83.5703 17.8359C83.0755 18.0495 82.5078 18.1562 81.8672 18.1562C81.2266 18.1562 80.6562 18.0495 80.1562 17.8359C79.6615 17.6224 79.2422 17.3229 78.8984 16.9375C78.5599 16.5469 78.3021 16.0911 78.125 15.5703C77.9479 15.0443 77.8594 14.474 77.8594 13.8594ZM80.1094 13.6953V13.8594C80.1094 14.2135 80.1406 14.5443 80.2031 14.8516C80.2656 15.1589 80.3646 15.4297 80.5 15.6641C80.6406 15.8932 80.8229 16.0729 81.0469 16.2031C81.2708 16.3333 81.5443 16.3984 81.8672 16.3984C82.1797 16.3984 82.4479 16.3333 82.6719 16.2031C82.8958 16.0729 83.0755 15.8932 83.2109 15.6641C83.3464 15.4297 83.4453 15.1589 83.5078 14.8516C83.5755 14.5443 83.6094 14.2135 83.6094 13.8594V13.6953C83.6094 13.3516 83.5755 13.0286 83.5078 12.7266C83.4453 12.4193 83.3438 12.1484 83.2031 11.9141C83.0677 11.6745 82.888 11.487 82.6641 11.3516C82.4401 11.2161 82.1693 11.1484 81.8516 11.1484C81.5339 11.1484 81.263 11.2161 81.0391 11.3516C80.8203 11.487 80.6406 11.6745 80.5 11.9141C80.3646 12.1484 80.2656 12.4193 80.2031 12.7266C80.1406 13.0286 80.1094 13.3516 80.1094 13.6953ZM89.5 11.3906V18H87.25V9.54688H89.3672L89.5 11.3906ZM92.0469 9.49219L92.0078 11.5781C91.8984 11.5625 91.7656 11.5495 91.6094 11.5391C91.4583 11.5234 91.3203 11.5156 91.1953 11.5156C90.8776 11.5156 90.6016 11.5573 90.3672 11.6406C90.138 11.7188 89.9453 11.8359 89.7891 11.9922C89.638 12.1484 89.5234 12.3385 89.4453 12.5625C89.3724 12.7865 89.3307 13.0417 89.3203 13.3281L88.8672 13.1875C88.8672 12.6406 88.9219 12.138 89.0312 11.6797C89.1406 11.2161 89.2995 10.8125 89.5078 10.4688C89.7214 10.125 89.9818 9.85938 90.2891 9.67188C90.5964 9.48438 90.9479 9.39062 91.3438 9.39062C91.4688 9.39062 91.5964 9.40104 91.7266 9.42188C91.8568 9.4375 91.9635 9.46094 92.0469 9.49219ZM103.156 15.0234C103.156 14.8203 103.125 14.638 103.062 14.4766C103.005 14.3099 102.896 14.1589 102.734 14.0234C102.573 13.8828 102.346 13.7448 102.055 13.6094C101.763 13.474 101.385 13.3333 100.922 13.1875C100.406 13.0208 99.9167 12.8333 99.4531 12.625C98.9948 12.4167 98.5885 12.1745 98.2344 11.8984C97.8854 11.6172 97.6094 11.2917 97.4062 10.9219C97.2083 10.5521 97.1094 10.1224 97.1094 9.63281C97.1094 9.15885 97.2135 8.72917 97.4219 8.34375C97.6302 7.95312 97.9219 7.61979 98.2969 7.34375C98.6719 7.0625 99.1146 6.84635 99.625 6.69531C100.141 6.54427 100.706 6.46875 101.32 6.46875C102.159 6.46875 102.891 6.61979 103.516 6.92188C104.141 7.22396 104.625 7.63802 104.969 8.16406C105.318 8.6901 105.492 9.29167 105.492 9.96875H103.164C103.164 9.63542 103.094 9.34375 102.953 9.09375C102.818 8.83854 102.609 8.63802 102.328 8.49219C102.052 8.34635 101.703 8.27344 101.281 8.27344C100.875 8.27344 100.536 8.33594 100.266 8.46094C99.9948 8.58073 99.7917 8.74479 99.6562 8.95312C99.5208 9.15625 99.4531 9.38542 99.4531 9.64062C99.4531 9.83333 99.5 10.0078 99.5938 10.1641C99.6927 10.3203 99.8385 10.4661 100.031 10.6016C100.224 10.737 100.461 10.8646 100.742 10.9844C101.023 11.1042 101.349 11.2214 101.719 11.3359C102.339 11.5234 102.883 11.7344 103.352 11.9688C103.826 12.2031 104.221 12.4661 104.539 12.7578C104.857 13.0495 105.096 13.3802 105.258 13.75C105.419 14.1198 105.5 14.5391 105.5 15.0078C105.5 15.5026 105.404 15.9453 105.211 16.3359C105.018 16.7266 104.74 17.0573 104.375 17.3281C104.01 17.599 103.576 17.8047 103.07 17.9453C102.565 18.0859 102 18.1562 101.375 18.1562C100.812 18.1562 100.258 18.0833 99.7109 17.9375C99.1641 17.7865 98.6667 17.5599 98.2188 17.2578C97.776 16.9557 97.4219 16.5703 97.1562 16.1016C96.8906 15.6328 96.7578 15.0781 96.7578 14.4375H99.1094C99.1094 14.7917 99.1641 15.0911 99.2734 15.3359C99.3828 15.5807 99.5365 15.7786 99.7344 15.9297C99.9375 16.0807 100.177 16.1901 100.453 16.2578C100.734 16.3255 101.042 16.3594 101.375 16.3594C101.781 16.3594 102.115 16.3021 102.375 16.1875C102.641 16.0729 102.836 15.9141 102.961 15.7109C103.091 15.5078 103.156 15.2786 103.156 15.0234ZM110.844 18.1562C110.188 18.1562 109.599 18.0521 109.078 17.8438C108.557 17.6302 108.115 17.3359 107.75 16.9609C107.391 16.5859 107.115 16.151 106.922 15.6562C106.729 15.1562 106.633 14.625 106.633 14.0625V13.75C106.633 13.1094 106.724 12.5234 106.906 11.9922C107.089 11.4609 107.349 11 107.688 10.6094C108.031 10.2188 108.448 9.91927 108.938 9.71094C109.427 9.4974 109.979 9.39062 110.594 9.39062C111.193 9.39062 111.724 9.48958 112.188 9.6875C112.651 9.88542 113.039 10.1667 113.352 10.5312C113.669 10.8958 113.909 11.3333 114.07 11.8438C114.232 12.349 114.312 12.9115 114.312 13.5312V14.4688H107.594V12.9688H112.102V12.7969C112.102 12.4844 112.044 12.2057 111.93 11.9609C111.82 11.7109 111.654 11.513 111.43 11.3672C111.206 11.2214 110.919 11.1484 110.57 11.1484C110.273 11.1484 110.018 11.2135 109.805 11.3438C109.591 11.474 109.417 11.6562 109.281 11.8906C109.151 12.125 109.052 12.401 108.984 12.7188C108.922 13.0312 108.891 13.375 108.891 13.75V14.0625C108.891 14.401 108.938 14.7135 109.031 15C109.13 15.2865 109.268 15.5339 109.445 15.7422C109.628 15.9505 109.846 16.112 110.102 16.2266C110.362 16.3411 110.656 16.3984 110.984 16.3984C111.391 16.3984 111.768 16.3203 112.117 16.1641C112.471 16.0026 112.776 15.7604 113.031 15.4375L114.125 16.625C113.948 16.8802 113.706 17.125 113.398 17.3594C113.096 17.5938 112.732 17.7865 112.305 17.9375C111.878 18.0833 111.391 18.1562 110.844 18.1562ZM117.844 5.99219V18H115.594V5.99219H117.844ZM123.172 9.54688L119.5 13.7344L117.531 15.7266L116.711 14.1016L118.273 12.1172L120.469 9.54688H123.172ZM120.836 18L118.336 14.0938L119.891 12.7344L123.43 18H120.836ZM123.781 13.8594V13.6953C123.781 13.0755 123.87 12.5052 124.047 11.9844C124.224 11.4583 124.482 11.0026 124.82 10.6172C125.159 10.2318 125.576 9.93229 126.07 9.71875C126.565 9.5 127.133 9.39062 127.773 9.39062C128.414 9.39062 128.984 9.5 129.484 9.71875C129.984 9.93229 130.404 10.2318 130.742 10.6172C131.086 11.0026 131.346 11.4583 131.523 11.9844C131.701 12.5052 131.789 13.0755 131.789 13.6953V13.8594C131.789 14.474 131.701 15.0443 131.523 15.5703C131.346 16.0911 131.086 16.5469 130.742 16.9375C130.404 17.3229 129.987 17.6224 129.492 17.8359C128.997 18.0495 128.43 18.1562 127.789 18.1562C127.148 18.1562 126.578 18.0495 126.078 17.8359C125.583 17.6224 125.164 17.3229 124.82 16.9375C124.482 16.5469 124.224 16.0911 124.047 15.5703C123.87 15.0443 123.781 14.474 123.781 13.8594ZM126.031 13.6953V13.8594C126.031 14.2135 126.062 14.5443 126.125 14.8516C126.188 15.1589 126.286 15.4297 126.422 15.6641C126.562 15.8932 126.745 16.0729 126.969 16.2031C127.193 16.3333 127.466 16.3984 127.789 16.3984C128.102 16.3984 128.37 16.3333 128.594 16.2031C128.818 16.0729 128.997 15.8932 129.133 15.6641C129.268 15.4297 129.367 15.1589 129.43 14.8516C129.497 14.5443 129.531 14.2135 129.531 13.8594V13.6953C129.531 13.3516 129.497 13.0286 129.43 12.7266C129.367 12.4193 129.266 12.1484 129.125 11.9141C128.99 11.6745 128.81 11.487 128.586 11.3516C128.362 11.2161 128.091 11.1484 127.773 11.1484C127.456 11.1484 127.185 11.2161 126.961 11.3516C126.742 11.487 126.562 11.6745 126.422 11.9141C126.286 12.1484 126.188 12.4193 126.125 12.7266C126.062 13.0286 126.031 13.3516 126.031 13.6953ZM135.547 6V18H133.289V6H135.547ZM141.969 16.0938V12.3281C141.969 12.0573 141.924 11.8255 141.836 11.6328C141.747 11.4349 141.609 11.2812 141.422 11.1719C141.24 11.0625 141.003 11.0078 140.711 11.0078C140.461 11.0078 140.245 11.0521 140.062 11.1406C139.88 11.224 139.74 11.3464 139.641 11.5078C139.542 11.6641 139.492 11.849 139.492 12.0625H137.242C137.242 11.7031 137.326 11.362 137.492 11.0391C137.659 10.7161 137.901 10.4323 138.219 10.1875C138.536 9.9375 138.914 9.74219 139.352 9.60156C139.794 9.46094 140.289 9.39062 140.836 9.39062C141.492 9.39062 142.076 9.5 142.586 9.71875C143.096 9.9375 143.497 10.2656 143.789 10.7031C144.086 11.1406 144.234 11.6875 144.234 12.3438V15.9609C144.234 16.4245 144.263 16.8047 144.32 17.1016C144.378 17.3932 144.461 17.6484 144.57 17.8672V18H142.297C142.188 17.7708 142.104 17.4844 142.047 17.1406C141.995 16.7917 141.969 16.4427 141.969 16.0938ZM142.266 12.8516L142.281 14.125H141.023C140.727 14.125 140.469 14.1589 140.25 14.2266C140.031 14.2943 139.852 14.3906 139.711 14.5156C139.57 14.6354 139.466 14.776 139.398 14.9375C139.336 15.099 139.305 15.276 139.305 15.4688C139.305 15.6615 139.349 15.8359 139.438 15.9922C139.526 16.1432 139.654 16.263 139.82 16.3516C139.987 16.4349 140.182 16.4766 140.406 16.4766C140.745 16.4766 141.039 16.4089 141.289 16.2734C141.539 16.138 141.732 15.9714 141.867 15.7734C142.008 15.5755 142.081 15.388 142.086 15.2109L142.68 16.1641C142.596 16.3776 142.482 16.599 142.336 16.8281C142.195 17.0573 142.016 17.2734 141.797 17.4766C141.578 17.6745 141.315 17.8385 141.008 17.9688C140.701 18.0938 140.336 18.1562 139.914 18.1562C139.378 18.1562 138.891 18.0495 138.453 17.8359C138.021 17.6172 137.677 17.3177 137.422 16.9375C137.172 16.5521 137.047 16.1146 137.047 15.625C137.047 15.1823 137.13 14.7891 137.297 14.4453C137.464 14.1016 137.708 13.8125 138.031 13.5781C138.359 13.3385 138.768 13.1589 139.258 13.0391C139.747 12.9141 140.315 12.8516 140.961 12.8516H142.266ZM148.164 6V18H145.914V6H148.164ZM147.844 13.4766H147.227C147.232 12.888 147.31 12.3464 147.461 11.8516C147.612 11.3516 147.828 10.9193 148.109 10.5547C148.391 10.1849 148.727 9.89844 149.117 9.69531C149.513 9.49219 149.951 9.39062 150.43 9.39062C150.846 9.39062 151.224 9.45052 151.562 9.57031C151.906 9.6849 152.201 9.8724 152.445 10.1328C152.695 10.388 152.888 10.724 153.023 11.1406C153.159 11.5573 153.227 12.0625 153.227 12.6562V18H150.961V12.6406C150.961 12.2656 150.906 11.9714 150.797 11.7578C150.693 11.5391 150.539 11.3854 150.336 11.2969C150.138 11.2031 149.893 11.1562 149.602 11.1562C149.279 11.1562 149.003 11.2161 148.773 11.3359C148.549 11.4557 148.37 11.6224 148.234 11.8359C148.099 12.0443 148 12.2891 147.938 12.5703C147.875 12.8516 147.844 13.1536 147.844 13.4766Z" fill="white"/>
<path d="M20.3243 0H4C1.79086 0 0 1.79086 0 4V20.3243C0 22.5335 1.79086 24.3243 4 24.3243H20.3243C22.5335 24.3243 24.3243 22.5335 24.3243 20.3243V4C24.3243 1.79086 22.5335 0 20.3243 0Z" fill="#03A10A"/>
<path d="M15 10C15 11.8417 13.6575 13.3333 12 13.3333C10.3425 13.3333 9 11.8417 9 10L9.0825 9.21667L6.75 7.91667L12 5L17.25 7.91667V12.0833H16.5V8.33333L14.9175 9.21667L15 10ZM12 15C15.315 15 18 16.4917 18 18.3333V20H6V18.3333C6 16.4917 8.685 15 12 15Z" fill="white"/>
</svg>
